<svg width="112" height="56" viewBox="0 0 113 52" fill="none" xmlns="http://www.w3.org/2000/svg">
<path d="M7.84592 48.7176C7.72539 48.6574 7.53141 48.5638 7.25707 48.4502L6.73539 48.2091C6.46105 48.0685 6.32733 47.8946 6.32733 47.6874C6.32733 47.3729 6.59476 47.1658 6.99654 47.1658C7.35124 47.1658 7.78628 47.3334 8.06062 47.6473L8.56912 46.9912C8.15416 46.5361 7.62557 46.3088 6.98336 46.3088C6.49495 46.3088 6.10008 46.4426 5.79937 46.7169C5.49804 46.9843 5.34423 47.3189 5.34423 47.727C5.34423 48.2355 5.60539 48.6435 6.12017 48.9449C6.24698 49.0183 6.44159 49.1119 6.70211 49.2192C6.96327 49.3197 7.12335 49.3868 7.19052 49.4201C7.49814 49.5739 7.65257 49.761 7.65257 49.982C7.65257 50.3097 7.34496 50.5576 6.8961 50.5576C6.35433 50.5576 5.92618 50.3166 5.61167 49.842L5.06299 50.471C5.45786 51.08 6.14025 51.4146 6.88982 51.4146C7.4115 51.4146 7.83965 51.2739 8.16797 50.9996C8.49567 50.7253 8.66329 50.3643 8.66329 49.9292C8.66203 49.4 8.3877 48.992 7.84592 48.7176Z" fill="#DC6648"/>
<path d="M12.6436 49.2725L10.6636 46.3892H10.0879V51.3335H10.9913V48.4031L12.4898 50.5708H12.7911L14.2896 48.4031V51.3335H15.1992V46.3892H14.6173L12.6436 49.2725Z" fill="#DC6648"/>
<path d="M18.3021 46.3892L16.3887 51.3335H17.3586L17.7666 50.2092H19.5194L19.9275 51.3335H20.8974L19.004 46.3892H18.3021ZM18.0341 49.3862L18.6499 47.6937L19.2589 49.3862H18.0341Z" fill="#DC6648"/>
<path d="M25.5827 47.9347C25.5827 47.4997 25.4421 47.1387 25.1546 46.8374C24.8671 46.5361 24.459 46.3892 23.9235 46.3892H22.0835V51.3335H22.9938V49.4803H23.6027L24.7063 51.3335H25.7905L24.5463 49.373C25.2349 49.152 25.5827 48.577 25.5827 47.9347ZM23.8231 48.6573H22.9931V47.2392H23.9229C24.378 47.2392 24.6455 47.5468 24.6455 47.9417C24.6461 48.3428 24.3787 48.6573 23.8231 48.6573Z" fill="#DC6648"/>
<path d="M26.6445 47.2724H28.0696V51.3335H28.993V47.2724H30.4181V46.3892H26.6445V47.2724Z" fill="#DC6648"/>
<path d="M34.9874 46.3892H34.0708V51.3335H37.5299V50.4572H34.9874V46.3892Z" fill="#DC6648"/>
<path d="M39.647 46.3892H38.7305V51.3335H39.647V46.3892Z" fill="#DC6648"/>
<path d="M43.231 49.8947L41.86 46.3892H40.8091L42.877 51.3335H43.5726L45.6197 46.3892H44.5896L43.231 49.8947Z" fill="#DC6648"/>
<path d="M47.7193 46.3892H46.8027V51.3335H47.7193V46.3892Z" fill="#DC6648"/>
<path d="M52.6809 49.5601L49.9784 46.3892H49.4297V51.3335H50.3331V48.189L52.9892 51.3335H53.5843V46.3892H52.6809V49.5601Z" fill="#DC6648"/>
<path d="M57.5765 49.2121H59.0084V49.9617C58.6807 50.3026 58.1521 50.5305 57.6236 50.5305C57.1483 50.5305 56.7472 50.3698 56.4327 50.049C56.1181 49.7275 55.9643 49.3333 55.9643 48.8581C55.9643 48.3766 56.125 47.9748 56.4396 47.6603C56.761 47.3458 57.1621 47.185 57.6374 47.185C58.186 47.185 58.6544 47.379 59.0354 47.7739L59.6444 47.1317C59.1961 46.6433 58.4397 46.3018 57.6374 46.3018C56.9079 46.3018 56.2858 46.5428 55.7842 47.0243C55.2826 47.5058 55.0283 48.1217 55.0283 48.8643C55.0283 49.6001 55.2694 50.209 55.7509 50.6912C56.2393 51.1664 56.8552 51.4069 57.5978 51.4069C58.4742 51.4069 59.2238 51.0722 59.8528 50.4099V48.4098H57.5777V49.2121H57.5765Z" fill="#DC6648"/>
<path d="M66.0847 48.7174C65.9642 48.6571 65.7702 48.5636 65.4958 48.4499L64.9742 48.2089C64.6998 48.0683 64.5661 47.8944 64.5661 47.6872C64.5661 47.3727 64.8335 47.1655 65.2353 47.1655C65.59 47.1655 66.0251 47.3331 66.2994 47.647L66.8079 46.991C66.3929 46.5358 65.8643 46.3086 65.2221 46.3086C64.7337 46.3086 64.3388 46.4423 64.0381 46.7166C63.7368 46.9841 63.583 47.3187 63.583 47.7267C63.583 48.2352 63.8442 48.6433 64.3589 48.9446C64.4857 49.0181 64.6804 49.1116 64.9409 49.219C65.202 49.3194 65.3621 49.3866 65.4293 49.4199C65.7369 49.5737 65.8907 49.7607 65.8907 49.9817C65.8907 50.3094 65.5831 50.5574 65.1349 50.5574C64.5931 50.5574 64.165 50.3163 63.8504 49.8417L63.3018 50.4708C63.6966 51.0797 64.379 51.4143 65.1286 51.4143C65.6503 51.4143 66.0784 51.2737 66.4067 50.9994C66.7344 50.725 66.9021 50.364 66.9021 49.929C66.9014 49.3998 66.6271 48.9917 66.0847 48.7174Z" fill="#DC6648"/>
<path d="M67.8979 47.2724H69.323V51.3335H70.2458V47.2724H71.6709V46.3892H67.8979V47.2724Z" fill="#DC6648"/>
<path d="M73.7846 46.3892L71.8711 51.3335H72.841L73.2491 50.2092H75.0018L75.4099 51.3335H76.3798L74.4864 46.3892H73.7846ZM73.5171 49.3862L74.133 47.6937L74.7419 49.3862H73.5171Z" fill="#DC6648"/>
<path d="M81.0656 47.9347C81.0656 47.4997 80.925 47.1387 80.6375 46.8374C80.35 46.5361 79.9419 46.3892 79.4064 46.3892H77.5664V51.3335H78.4767V49.4803H79.0856L80.1893 51.3335H81.2734L80.0292 49.373C80.7179 49.152 81.0656 48.577 81.0656 47.9347ZM79.306 48.6573H78.4761V47.2392H79.4058C79.8609 47.2392 80.1284 47.5468 80.1284 47.9417C80.129 48.3428 79.8609 48.6573 79.306 48.6573Z" fill="#DC6648"/>
<path d="M82.1274 47.2724H83.5525V51.3335H84.476V47.2724H85.901V46.3892H82.1274V47.2724Z" fill="#DC6648"/>
<path d="M89.511 48.7174C89.3904 48.6571 89.1964 48.5636 88.9221 48.4499L88.4004 48.2089C88.1261 48.0683 87.9924 47.8944 87.9924 47.6872C87.9924 47.3727 88.2598 47.1655 88.6616 47.1655C89.0163 47.1655 89.4513 47.3331 89.7257 47.647L90.2342 46.991C89.8192 46.5358 89.2906 46.3086 88.6484 46.3086C88.16 46.3086 87.7651 46.4423 87.4644 46.7166C87.1631 46.9841 87.0093 47.3187 87.0093 47.7267C87.0093 48.2352 87.2704 48.6433 87.7852 48.9446C87.912 49.0181 88.1066 49.1116 88.3672 49.219C88.6283 49.3194 88.7884 49.3866 88.8556 49.4199C89.1632 49.5737 89.317 49.7607 89.317 49.9817C89.317 50.3094 89.0094 50.5574 88.5611 50.5574C88.0194 50.5574 87.5912 50.3163 87.2767 49.8417L86.728 50.4708C87.1229 51.0797 87.8053 51.4143 88.5549 51.4143C89.0765 51.4143 89.5047 51.2737 89.833 50.9994C90.1607 50.725 90.3283 50.364 90.3283 49.929C90.3271 49.3998 90.0527 48.9917 89.511 48.7174Z" fill="#DC6648"/>
<path d="M97.2171 48.3899H95.0494V46.3892H94.1328V51.3335H95.0494V49.2725H97.2171V51.3335H98.1343V46.3892H97.2171V48.3899Z" fill="#DC6648"/>
<path d="M99.856 51.3335H103.141V50.4773H100.773V49.2594H102.961V48.4093H100.773V47.2455H103.141V46.3892H99.856V51.3335Z" fill="#DC6648"/>
<path d="M108.186 47.9347C108.186 47.4997 108.045 47.1387 107.758 46.8374C107.47 46.5361 107.061 46.3892 106.527 46.3892H104.687V51.3335H105.597V49.4803H106.206L107.31 51.3335H108.394L107.15 49.373C107.838 49.152 108.186 48.577 108.186 47.9347ZM106.426 48.6573H105.596V47.2392H106.526C106.981 47.2392 107.248 47.5468 107.248 47.9417C107.249 48.3428 106.982 48.6573 106.426 48.6573Z" fill="#DC6648"/>
<path d="M113 47.2455V46.3892H109.715V51.3335H113V50.4773H110.631V49.2594H112.819V48.4093H110.631V47.2455H113Z" fill="#DC6648"/>
<path d="M40.1407 16.3191L35.7237 12.0653L26.1821 2.87271L23.2008 0L20.2659 2.88025L5.06239 17.8L0 22.7676H5.06239V42.4698H28.9581V37.8776H9.47943V19.3218L23.2598 5.75045L35.7237 17.6958V42.4698H46.5089V37.8776H40.1407V16.3191Z" fill="#DC6648"/>
<path d="M53.6995 23.2141H48.7607V42.4693H53.6995V23.2141Z" fill="#DC6648"/>
<path d="M71.7067 24.2806C70.4869 23.2724 68.9188 22.7695 67.0022 22.7695C65.4716 22.7695 64.2048 23.1443 63.2079 23.897C62.6517 24.3189 62.0622 25.0076 61.4382 25.9643V23.2473H56.7217V42.4692H61.592V31.7568C61.592 30.6067 61.7508 29.6607 62.0666 28.9205C62.6768 27.5199 63.803 26.8187 65.4428 26.8187C66.7774 26.8187 67.6808 27.2977 68.1566 28.2544C68.4165 28.7786 68.5465 29.5313 68.5465 30.5107V42.4698H73.5361V29.2965C73.5367 26.9618 72.9259 25.2901 71.7067 24.2806Z" fill="#DC6648"/>
<path d="M92.6272 26.3459C91.7809 25.091 90.708 24.1726 89.4085 23.5906C88.1097 23.0087 86.6495 22.718 85.0285 22.718C82.299 22.718 80.0785 23.5793 78.3685 25.3007C76.6578 27.0221 75.8027 29.4961 75.8027 32.7223C75.8027 36.1657 76.7501 38.651 78.6447 40.1784C80.5393 41.7058 82.7265 42.4698 85.205 42.4698C88.2082 42.4698 90.5436 41.5639 92.2122 39.7528C93.2844 38.614 93.8865 37.4915 94.0177 36.3866H89.0463C88.7563 36.9334 88.4223 37.3603 88.0438 37.6679C87.3507 38.238 86.4492 38.5223 85.3399 38.5223C84.2934 38.5223 83.3988 38.2888 82.6549 37.8217C81.432 37.0697 80.7829 35.7601 80.7076 33.8918H94.2719C94.2958 32.2835 94.2424 31.0511 94.1112 30.1955C93.8846 28.7359 93.3899 27.4527 92.6272 26.3459ZM80.8262 30.6801C81.0032 29.4673 81.4352 28.5068 82.1238 27.7974C82.8119 27.088 83.7805 26.7333 85.0304 26.7333C86.1799 26.7333 87.1423 27.0679 87.9188 27.7371C88.6954 28.4063 89.1273 29.3875 89.2164 30.6801H80.8262Z" fill="#DC6648"/>
<path d="M112.282 40.5564C112.123 40.3285 112.026 39.8959 111.991 39.2581C111.968 38.415 111.957 37.6975 111.957 37.1055V28.5614C111.957 26.3177 111.162 24.791 109.572 23.9824C107.982 23.1738 106.163 22.7695 104.115 22.7695C100.968 22.7695 98.7492 23.5894 97.4566 25.2298C96.6442 26.2776 96.1866 27.616 96.0836 29.2451H100.783C100.898 28.5275 101.128 27.9581 101.476 27.5363C101.96 26.9669 102.786 26.6818 103.952 26.6818C104.991 26.6818 105.779 26.8269 106.316 27.1175C106.853 27.4082 107.122 27.9349 107.122 28.6983C107.122 29.3248 106.772 29.7862 106.072 30.0825C105.681 30.2533 105.033 30.3958 104.127 30.51L102.457 30.7153C100.563 30.9545 99.129 31.3531 98.1534 31.9112C96.3749 32.9364 95.4854 34.5937 95.4854 36.8832C95.4854 38.6492 96.0378 40.0127 97.1439 40.9757C98.2495 41.9381 99.65 42.4196 101.346 42.4196C102.675 42.4196 103.867 42.1177 104.92 41.5137C105.802 41.0015 106.581 40.3806 107.257 39.6511C107.291 40.0724 107.337 40.4484 107.394 40.7786C107.451 41.1094 107.554 41.4623 107.702 41.8383H113V41.1207C112.681 40.9726 112.442 40.7843 112.282 40.5564ZM107.104 34.5931C107.07 36.2222 106.605 37.344 105.708 37.9593C104.812 38.5745 103.832 38.8821 102.767 38.8821C102.096 38.8821 101.526 38.6969 101.058 38.3271C100.59 37.9567 100.356 37.356 100.356 36.5242C100.356 35.59 100.739 34.9007 101.506 34.4569C101.96 34.1951 102.705 33.9729 103.745 33.7902L104.854 33.5849C105.408 33.4826 105.844 33.3715 106.161 33.2515C106.479 33.1316 106.793 32.9753 107.106 32.782V34.5931H107.104Z" fill="#DC6648"/>
<path d="M22.8824 16.9695H18.7266V21.1254H22.8824V16.9695Z" fill="#DC6648"/>
<path d="M27.7936 16.9695H23.6377V21.1254H27.7936V16.9695Z" fill="#DC6648"/>
<path d="M22.8824 21.8806H18.7266V26.0365H22.8824V21.8806Z" fill="#DC6648"/>
<path d="M27.7936 21.8806H23.6377V26.0365H27.7936V21.8806Z" fill="#DC6648"/>
<path d="M51.2301 21.4002C52.8992 21.4002 54.2522 20.0472 54.2522 18.3781C54.2522 16.709 52.8992 15.356 51.2301 15.356C49.5611 15.356 48.208 16.709 48.208 18.3781C48.208 20.0472 49.5611 21.4002 51.2301 21.4002Z" fill="#DC6648"/>
</svg>
